# xmcd
#
# Track frame offsets: 
#        150
#        11685
#        26156
#        37401
#        50316
#        64063
#        81148
#        95069
#        106901
#        121443
#        135822
#        148096
#        162203
#        172849
#        183719
#        196325
#
# Disc length: 2811 seconds
#
# Revision: 0
# Processed by: cddbd v1.5.2PL0 Copyright (c) Steve Scherf et al.
# Submitted via: ExactAudioCopy v0.99pb4
#
DISCID=dc0af910
DTITLE=Nat King Cole - The Great Nat King Cole Volume 2 [CD 3)
DYEAR=1900
DGENRE=Soul
TTITLE0=Makin' Whoopee!
TTITLE1=I'm In The Mood For Love
TTITLE2=You're The Cream In My Coffee
TTITLE3=Dream A Little Dream Of Me
TTITLE4=Could 'Ja
TTITLE5=Body And Sould (Inst.)
TTITLE6=Come To Baby, Do
TTITLE7=Ta-De-Ah
TTITLE8=I'll String Along With You
TTITLE9=I Want To Thank You Folks
TTITLE10=Naughty Angeline
TTITLE11=Now He Tells Me
TTITLE12=I Got Rhythm (Inst.)
TTITLE13=This Is My Night To Dream
TTITLE14=I Don't Know Why, I Just Do
TTITLE15=The Christmas Song
EXTD=
EXTT0=
EXTT1=
EXTT2=
EXTT3=
EXTT4=
EXTT5=
EXTT6=
EXTT7=
EXTT8=
EXTT9=
EXTT10=
EXTT11=
EXTT12=
EXTT13=
EXTT14=
EXTT15=
PLAYORDER=
